HIERARCHY
ROOT hip
{
  OFFSET 0 0 0
  CHANNELS 6 Xposition Yposition Zposition Zrotation Yrotation Xrotation
  JOINT abdomen
  {
    OFFSET 0 20.6881 -0.73152
    CHANNELS 3 Zrotation Xrotation Yrotation
    JOINT chest
    {
      OFFSET 0 11.7043 -0.48768
      CHANNELS 3 Zrotation Xrotation Yrotation
      JOINT neck
      {
        OFFSET 0 22.1894 -2.19456
        CHANNELS 3 Zrotation Xrotation Yrotation
        JOINT head
        {
          OFFSET -0.24384 7.07133 1.2192
          CHANNELS 3 Zrotation Xrotation Yrotation
          JOINT leftEye
          {
            OFFSET 4.14528 8.04674 8.04672
            CHANNELS 3 Zrotation Xrotation Yrotation
            End Site
            {
              OFFSET 1 0 0
            }
          }
          JOINT rightEye
          {
            OFFSET -3.6576 8.04674 8.04672
            CHANNELS 3 Zrotation Xrotation Yrotation
            End Site
            {
              OFFSET 1 0 0
            }
          }
        }
      }
      JOINT rCollar
      {
        OFFSET -2.68224 19.2634 -4.8768
        CHANNELS 3 Zrotation Xrotation Yrotation
        JOINT rShldr
        {
          OFFSET -8.77824 -1.95073 1.46304
          CHANNELS 3 Zrotation Xrotation Yrotation
          JOINT rForeArm
          {
            OFFSET -28.1742 -1.7115 0.48768
            CHANNELS 3 Zrotation Xrotation Yrotation
            JOINT rHand
            {
              OFFSET -22.5879 0.773209 7.07136
              CHANNELS 3 Zrotation Xrotation Yrotation
              JOINT rThumb1
              {
                OFFSET -1.2192 -0.487915 3.41376
                CHANNELS 3 Zrotation Xrotation Yrotation
                JOINT rThumb2
                {
                  OFFSET -3.37035 -0.52449 3.41376
                  CHANNELS 3 Zrotation Xrotation Yrotation
                  End Site
                  {
                    OFFSET -1.78271 -1.18214 1.43049
                  }
                }
              }
              JOINT rIndex1
              {
                OFFSET -7.75947 0.938293 5.60832
                CHANNELS 3 Zrotation Xrotation Yrotation
                JOINT rIndex2
                {
                  OFFSET -2.54057 -0.884171 1.56538
                  CHANNELS 3 Zrotation Xrotation Yrotation
                  End Site
                  {
                    OFFSET -1.62519 -0.234802 1.16502
                  }
                }
              }
              JOINT rMid1
              {
                OFFSET -8.24714 1.18213 3.41376
                CHANNELS 3 Zrotation Xrotation Yrotation
                JOINT rMid2
                {
                  OFFSET -3.10165 -0.590103 1.0647
                  CHANNELS 3 Zrotation Xrotation Yrotation
                  End Site
                  {
                    OFFSET -2.48547 -0.328903 0.83742
                  }
                }
              }
              JOINT rRing1
              {
                OFFSET -8.82822 0.546677 1.51678
                CHANNELS 3 Zrotation Xrotation Yrotation
                JOINT rRing2
                {
                  OFFSET -2.60934 -0.819778 -0.0198488
                  CHANNELS 3 Zrotation Xrotation Yrotation
                  End Site
                  {
                    OFFSET -2.33842 -0.294052 0.168128
                  }
                }
              }
              JOINT rPinky1
              {
                OFFSET -8.27202 -0.0477905 -0.4584
                CHANNELS 3 Zrotation Xrotation Yrotation
                JOINT rPinky2
                {
                  OFFSET -1.82734 -0.647385 -0.700984
                  CHANNELS 3 Zrotation Xrotation Yrotation
                  End Site
                  {
                    OFFSET -1.69225 -0.51767 -0.607171
                  }
                }
              }
            }
          }
        }
      }
      JOINT lCollar
      {
        OFFSET 2.68224 19.2634 -4.8768
        CHANNELS 3 Zrotation Xrotation Yrotation
        JOINT lShldr
        {
          OFFSET 8.77824 -1.95073 1.46304
          CHANNELS 3 Zrotation Xrotation Yrotation
          JOINT lForeArm
          {
            OFFSET 28.1742 -1.7115 0.48768
            CHANNELS 3 Zrotation Xrotation Yrotation
            JOINT lHand
            {
              OFFSET 22.5879 0.773209 7.07136
              CHANNELS 3 Zrotation Xrotation Yrotation
              JOINT lThumb1
              {
                OFFSET 1.2192 -0.487915 3.41376
                CHANNELS 3 Zrotation Xrotation Yrotation
                JOINT lThumb2
                {
                  OFFSET 3.37035 -0.52449 3.41376
                  CHANNELS 3 Zrotation Xrotation Yrotation
                  End Site
                  {
                    OFFSET 1.78271 -1.18214 1.43049
                  }
                }
              }
              JOINT lIndex1
              {
                OFFSET 7.75947 0.938293 5.60832
                CHANNELS 3 Zrotation Xrotation Yrotation
                JOINT lIndex2
                {
                  OFFSET 2.54057 -0.884171 1.56538
                  CHANNELS 3 Zrotation Xrotation Yrotation
                  End Site
                  {
                    OFFSET 1.62519 -0.234802 1.16502
                  }
                }
              }
              JOINT lMid1
              {
                OFFSET 8.24714 1.18213 3.41376
                CHANNELS 3 Zrotation Xrotation Yrotation
                JOINT lMid2
                {
                  OFFSET 3.10165 -0.590103 1.0647
                  CHANNELS 3 Zrotation Xrotation Yrotation
                  End Site
                  {
                    OFFSET 2.48547 -0.328903 0.83742
                  }
                }
              }
              JOINT lRing1
              {
                OFFSET 8.82822 0.546677 1.51678
                CHANNELS 3 Zrotation Xrotation Yrotation
                JOINT lRing2
                {
                  OFFSET 2.60934 -0.819778 -0.0198488
                  CHANNELS 3 Zrotation Xrotation Yrotation
                  End Site
                  {
                    OFFSET 2.33842 -0.294052 0.168128
                  }
                }
              }
              JOINT lPinky1
              {
                OFFSET 8.27202 -0.0477905 -0.4584
                CHANNELS 3 Zrotation Xrotation Yrotation
                JOINT lPinky2
                {
                  OFFSET 1.82734 -0.647385 -0.700984
                  CHANNELS 3 Zrotation Xrotation Yrotation
                  End Site
                  {
                    OFFSET 1.69225 -0.51767 -0.607171
                  }
                }
              }
            }
          }
        }
      }
    }
  }
  JOINT rButtock
  {
    OFFSET -8.77824 4.35084 1.2192
    CHANNELS 3 Zrotation Xrotation Yrotation
    JOINT rThigh
    {
      OFFSET 0 -1.70687 -2.19456
      CHANNELS 3 Zrotation Xrotation Yrotation
      JOINT rShin
      {
        OFFSET 0 -36.8199 0.73152
        CHANNELS 3 Zrotation Xrotation Yrotation
        JOINT rFoot
        {
          OFFSET 0.73152 -45.1104 -5.12064
          CHANNELS 3 Zrotation Xrotation Yrotation
          End Site
          {
            OFFSET -1.1221 -3.69964 12.103
          }
        }
      }
    }
  }
  JOINT lButtock
  {
    OFFSET 8.77824 4.35084 1.2192
    CHANNELS 3 Zrotation Xrotation Yrotation
    JOINT lThigh
    {
      OFFSET 0 -1.70687 -2.19456
      CHANNELS 3 Zrotation Xrotation Yrotation
      JOINT lShin
      {
        OFFSET 0 -36.8199 0.73152
        CHANNELS 3 Zrotation Xrotation Yrotation
        JOINT lFoot
        {
          OFFSET -0.73152 -45.1104 -5.12064
          CHANNELS 3 Zrotation Xrotation Yrotation
          End Site
          {
            OFFSET 1.1221 -3.69964 12.103
          }
        }
      }
    }
  }
}
MOTION
Frames:	9
Frame Time:	0.00833333
-2.96295 84.2564 29.8616 0.0 0.0 0.0 -1.24151 -0.0039812 -0.0340788 -0.342493 -0.00249268 -0.0593271 2.99595e-14 7.95139e-16 -2.85753e-16 8.94003e-14 3.18055e-15 -8.19987e-16 -0.0 0.0 0.0 -0.0 0.0 0.0 1.52561e-14 3.92134e-17 0.0 3.13339e-13 6.21202e-16 -9.93923e-16 5.36227e-12 -1.57278e-12 -1.08139e-13 6.13425e-11 1.76382e-12 -4.77083e-13 1.44696e-10 4.16907e-13 -1.2754e-12 2.49871e-10 7.18805e-13 -2.22162e-12 1.44699e-10 4.17845e-13 -1.28176e-12 7.73091 5.47488 0.417314 1.44695e-10 4.16752e-13 -1.27222e-12 2.90554 0.965183 0.102902 1.44703e-10 4.17249e-13 -1.28017e-12 10.2786 0.731801 0.0259123 1.44693e-10 4.19436e-13 -1.2754e-12 2.22167 -0.733487 -0.20892 1.50595e-14 4.05723e-17 -2.98177e-16 3.09436e-13 3.23025e-16 -2.78299e-15 5.36132e-12 1.62805e-12 -1.08139e-13 6.13377e-11 -1.45764e-12 -4.73903e-13 1.44686e-10 3.77043e-13 -1.2754e-12 2.49876e-10 6.55194e-13 -2.20094e-12 1.44681e-10 3.76498e-13 -1.26904e-12 -7.73091 5.47488 -0.417314 1.44686e-10 3.76896e-13 -1.27858e-12 -2.90554 0.965183 -0.102902 1.44676e-10 3.77591e-13 -1.27302e-12 -10.2786 0.731801 -0.0259123 1.44691e-10 3.78088e-13 -1.27858e-12 -2.22167 -0.733487 0.20892 -2.03217e-16 0.0 -3.88251e-19 -0.453864 -1.92099 -0.00952671 -0.00915543 -2.07857 -0.0755506 -0.487427 3.99699 0.136649 2.03217e-16 0.0 3.88251e-19 -1.43731 -5.97115 0.129664 -0.00126402 5.25794 -0.0454119 0.507852 0.710748 -0.0722785
-3.42131 83.7465 28.0631 -1.1783 -1.3955 4.7931 -1.24451 -1.52654 0.14633 0.304491 -0.394412 0.0147755 -1.09466 1.43194 -0.698408 2.30464 -0.518337 -1.14657 -0.0 0.0 0.0 -0.0 0.0 0.0 4.58684e-15 -2.49036e-14 -1.82575e-14 23.3025 5.48865 -4.66075 -6.98464 -4.02278 9.83034 0.0531518 5.11778 0.708933 1.50625e-10 -9.80071e-11 1.36062e-11 2.59984e-10 -1.68872e-10 2.28231e-11 1.50633e-10 -9.8012e-11 1.3601e-11 7.73091 5.47488 0.417314 1.50629e-10 -9.80142e-11 1.36114e-11 2.90554 0.965183 0.102902 1.50636e-10 -9.80135e-11 1.36053e-11 10.2786 0.731801 0.0259123 1.5062e-10 -9.80063e-11 1.36061e-11 2.22167 -0.733487 -0.20892 4.42321e-15 -2.49024e-14 -1.85239e-14 -23.5797 5.48882 2.71862 5.61231 -2.90637 -8.34442 -0.0135222 2.58015 -0.361289 2.12293e-10 1.31228e-10 -5.58345e-11 3.66356e-10 2.26255e-10 -9.76737e-11 2.12289e-10 1.3123e-10 -5.58243e-11 -7.73091 5.47488 -0.417314 2.12294e-10 1.31229e-10 -5.58358e-11 -2.90554 0.965183 -0.102902 2.12285e-10 1.31229e-10 -5.5831e-11 -10.2786 0.731801 -0.0259123 2.12295e-10 1.31229e-10 -5.58357e-11 -2.22167 -0.733487 0.20892 -2.03217e-16 0.0 -3.88251e-19 -2.10216 -1.73948 0.0535035 -0.00584875 -1.60517 -0.0522608 -0.504232 0.0514118 -2.69062 2.03217e-16 0.0 3.88251e-19 0.808419 -7.88596 -1.95346 -0.0092351 9.57015 -0.155511 0.766242 -4.18779 3.15247
-3.41922 83.7459 28.0583 -1.177 -1.3619 4.8095 -1.23696 -3.1332 0.336401 0.989966 -0.80919 0.0928033 -2.21785 2.94697 -1.43941 4.72647 -1.08542 -2.35936 -0.0 0.0 0.0 -0.0 0.0 0.0 -6.81575e-15 -5.03005e-14 -3.88469e-14 48.9206 11.1691 -9.72984 -12.8856 -7.87885 20.3716 -0.0305094 10.5267 1.47761 1.59107e-10 -2.03126e-10 2.42664e-11 2.74401e-10 -3.49881e-10 4.04746e-11 1.59122e-10 -2.03137e-10 2.42627e-11 7.73091 5.47488 0.417314 1.59117e-10 -2.0314e-10 2.4274e-11 2.90554 0.965183 0.102902 1.59123e-10 -2.0314e-10 2.427e-11 10.2786 0.731801 0.0259123 1.59101e-10 -2.03127e-10 2.42662e-11 2.22167 -0.733487 -0.20892 -6.94433e-15 -5.02995e-14 -3.90767e-14 -49.0819 11.2459 5.67622 10.6326 -5.77152 -17.2306 0.00771607 5.31157 -0.746254 2.90567e-10 2.86335e-10 -1.1135e-10 5.01294e-10 4.93774e-10 -1.94933e-10 2.90565e-10 2.8634e-10 -1.11336e-10 -7.73091 5.47488 -0.417314 2.90569e-10 2.86338e-10 -1.11349e-10 -2.90554 0.965183 -0.102902 2.90561e-10 2.86338e-10 -1.11345e-10 -10.2786 0.731801 -0.0259123 2.90566e-10 2.86337e-10 -1.11349e-10 -2.22167 -0.733487 0.20892 -2.03217e-16 0.0 -3.88251e-19 -3.84389 -1.54823 0.118322 -0.00277174 -1.10473 -0.0276567 -0.945371 -4.09955 -5.69307 2.03217e-16 0.0 3.88251e-19 3.03033 -9.89524 -4.18022 0.000978567 14.1286 -0.275946 1.64448 -9.31714 6.63107
-3.42461 83.7453 28.0544 -1.2079 -1.3426 4.8231 -1.22169 -4.5715 0.508609 1.6015 -1.17825 0.163014 -3.17903 4.29327 -2.10047 6.85169 -1.55252 -3.44084 -0.0 0.0 0.0 -0.0 0.0 0.0 -1.67517e-14 -7.47891e-14 -5.47725e-14 72.6479 16.0219 -14.4925 -16.9572 -10.6485 29.9854 -0.232338 15.3438 2.19665 1.62481e-10 -2.94855e-10 4.33693e-11 2.80211e-10 -5.08053e-10 7.29126e-11 1.62501e-10 -2.94872e-10 4.33664e-11 7.73091 5.47488 0.417314 1.62496e-10 -2.94876e-10 4.33786e-11 2.90554 0.965183 0.102902 1.62501e-10 -2.94875e-10 4.33764e-11 10.2786 0.731801 0.0259123 1.62473e-10 -2.94858e-10 4.33691e-11 2.22167 -0.733487 -0.20892 -1.68494e-14 -7.47884e-14 -5.49752e-14 -72.3514 16.3151 8.46151 14.3666 -7.98089 -25.2624 0.0578086 7.73921 -1.09272 3.47507e-10 3.92929e-10 -1.64953e-10 5.99316e-10 6.77453e-10 -2.88619e-10 3.47505e-10 3.92937e-10 -1.64935e-10 -7.73091 5.47488 -0.417314 3.4751e-10 3.92933e-10 -1.6495e-10 -2.90554 0.965183 -0.102902 3.47503e-10 3.92933e-10 -1.64947e-10 -10.2786 0.731801 -0.0259123 3.47504e-10 3.92932e-10 -1.6495e-10 -2.22167 -0.733487 0.20892 -2.03217e-16 0.0 -3.88251e-19 -5.39994 -1.37648 0.179531 -0.000389775 -0.658375 -0.00571952 -1.70886 -7.75609 -8.42208 2.03217e-16 0.0 3.88251e-19 4.87498 -11.6626 -6.19116 0.0270609 18.1943 -0.38905 2.96944 -13.8048 9.86435
-3.43015 83.7461 28.056 -1.2332 -1.344 4.8141 -1.20712 -5.58907 0.634781 2.02606 -1.43299 0.213648 -3.80984 5.22023 -2.55661 8.28311 -1.77223 -4.19279 -0.0 0.0 0.0 -0.0 0.0 0.0 -2.30211e-14 -9.70073e-14 -5.9039e-14 89.6913 19.2287 -18.0022 -19.2159 -12.0564 36.8088 -0.448539 18.6903 2.72509 1.53083e-10 -3.53112e-10 8.35786e-11 2.64504e-10 -6.0913e-10 1.42317e-10 1.53106e-10 -3.5313e-10 8.35754e-11 7.73091 5.47488 0.417314 1.53101e-10 -3.53135e-10 8.35882e-11 2.90554 0.965183 0.102902 1.53105e-10 -3.53133e-10 8.35874e-11 10.2786 0.731801 0.0259123 1.53075e-10 -3.53114e-10 8.35786e-11 2.22167 -0.733487 -0.20892 -2.30985e-14 -9.70067e-14 -5.92378e-14 -88.8853 19.8082 10.5263 16.5954 -9.25244 -30.9401 0.109815 9.40858 -1.33443 3.51113e-10 3.78241e-10 -2.13771e-10 6.05046e-10 6.51533e-10 -3.73372e-10 3.5111e-10 3.7825e-10 -2.13752e-10 -7.73091 5.47488 -0.417314 3.51115e-10 3.78245e-10 -2.13768e-10 -2.90554 0.965183 -0.102902 3.51108e-10 3.78245e-10 -2.13766e-10 -10.2786 0.731801 -0.0259123 3.51109e-10 3.78244e-10 -2.13768e-10 -2.22167 -0.733487 0.20892 -2.03217e-16 0.0 -3.88251e-19 -6.49103 -1.25345 0.231735 0.00106886 -0.347247 0.00957248 -2.45124 -10.2639 -10.3738 2.03217e-16 0.0 3.88251e-19 6.07872 -12.8704 -7.60492 0.0552028 21.0286 -0.472433 4.21014 -16.8614 12.2293
-3.42739 83.7474 28.078 -1.218 -1.3472 4.8029 -1.20211 -6.01875 0.69524 2.18576 -1.53199 0.236851 -4.00794 5.56141 -2.72092 8.76071 -1.65482 -4.48021 -0.0 0.0 0.0 -0.0 0.0 0.0 -2.40132e-14 -1.21805e-13 -4.4122e-14 96.4731 20.4398 -19.4318 -19.9955 -12.4771 39.5179 -0.549868 19.9775 2.93645 1.26022e-10 -3.73934e-10 1.71597e-10 2.19419e-10 -6.46935e-10 2.95101e-10 1.26043e-10 -3.73948e-10 1.71591e-10 7.73091 5.47488 0.417314 1.26037e-10 -3.73953e-10 1.71605e-10 2.90554 0.965183 0.102902 1.26042e-10 -3.73952e-10 1.71605e-10 10.2786 0.731801 0.0259123 1.26013e-10 -3.73935e-10 1.71598e-10 2.22167 -0.733487 -0.20892 -2.40842e-14 -1.21805e-13 -4.43519e-14 -95.4434 21.2076 11.3817 17.4075 -9.69356 -33.2164 0.132652 10.0098 -1.42238 2.5862e-10 1.42235e-10 -2.69673e-10 4.44304e-10 2.4298e-10 -4.6923e-10 2.58614e-10 1.42242e-10 -2.69655e-10 -7.73091 5.47488 -0.417314 2.58619e-10 1.42236e-10 -2.6967e-10 -2.90554 0.965183 -0.102902 2.58613e-10 1.42236e-10 -2.69669e-10 -10.2786 0.731801 -0.0259123 2.58618e-10 1.42238e-10 -2.69671e-10 -2.22167 -0.733487 0.20892 -2.03217e-16 0.0 -3.88251e-19 -6.93305 -1.20202 0.271737 0.0015947 -0.225534 0.0155585 -2.79023 -11.2273 -11.1602 2.03217e-16 0.0 3.88251e-19 6.51943 -13.3246 -8.1453 0.0682174 22.139 -0.506916 4.77185 -18.0399 13.1906
-3.42552 83.7476 28.1062 -1.194 -1.3886 4.8051 -1.20624 -6.02849 0.708461 2.15615 -1.51953 0.240453 -3.90455 5.48467 -2.67587 8.55965 -1.29658 -4.43598 -0.0 0.0 0.0 -0.0 0.0 0.0 -2.12428e-14 -1.48172e-13 -1.56388e-14 95.708 20.3168 -19.2818 -19.9257 -12.4511 39.2522 -0.535914 19.796 2.90656 8.63329e-11 -3.67568e-10 2.92896e-10 1.53313e-10 -6.38751e-10 5.05935e-10 8.63492e-11 -3.67575e-10 2.92886e-10 7.73091 5.47488 0.417314 8.63417e-11 -3.67579e-10 2.92899e-10 2.90554 0.965183 0.102902 8.63479e-11 -3.67578e-10 2.929e-10 10.2786 0.731801 0.0259123 8.63243e-11 -3.67566e-10 2.92897e-10 2.22167 -0.733487 -0.20892 -2.13172e-14 -1.48171e-13 -1.59245e-14 -94.7375 21.1432 11.3091 17.3522 -9.67889 -33.0378 0.127522 9.84864 -1.39888 9.85056e-11 -2.49401e-10 -3.29976e-10 1.66427e-10 -4.34636e-10 -5.71896e-10 9.84955e-11 -2.49397e-10 -3.29963e-10 -7.73091 5.47488 -0.417314 9.85015e-11 -2.49404e-10 -3.29976e-10 -2.90554 0.965183 -0.102902 9.84947e-11 -2.49404e-10 -3.29976e-10 -10.2786 0.731801 -0.0259123 9.85083e-11 -2.494e-10 -3.29977e-10 -2.22167 -0.733487 0.20892 -2.03217e-16 0.0 -3.88251e-19 -6.91123 -1.20158 0.303006 0.00153807 -0.239113 0.0148983 -2.75246 -11.1082 -11.0896 2.03217e-16 0.0 3.88251e-19 6.44633 -13.2481 -8.05372 0.0659093 22.0182 -0.504323 4.71289 -17.9151 13.0952
-3.42816 83.7476 28.1328 -1.1855 -1.4464 4.8029 -1.21488 -5.86864 0.703212 2.05422 -1.45566 0.236212 -3.68553 5.24138 -2.54946 8.08912 -0.829853 -4.26326 -0.0 0.0 0.0 -0.0 0.0 0.0 -1.71977e-14 -1.65952e-13 1.3694e-14 91.9211 19.656 -18.4904 -19.5142 -12.2437 37.788 -0.476953 19.0388 2.78228 4.12478e-11 -3.35242e-10 3.9829e-10 7.76085e-11 -5.85517e-10 6.89388e-10 4.12587e-11 -3.35241e-10 3.98276e-10 7.73091 5.47488 0.417314 4.12499e-11 -3.35245e-10 3.98289e-10 2.90554 0.965183 0.102902 4.12576e-11 -3.35244e-10 3.9829e-10 10.2786 0.731801 0.0259123 4.12395e-11 -3.35238e-10 3.98292e-10 2.22167 -0.733487 -0.20892 -1.72809e-14 -1.65952e-13 1.33461e-14 -91.116 20.4818 10.8491 16.9462 -9.47783 -31.863 0.11197 9.39438 -1.33265 -5.43698e-11 -6.20854e-10 -3.69994e-10 -9.86802e-11 -1.07717e-09 -6.39506e-10 -5.43843e-11 -6.20854e-10 -3.69986e-10 -7.73091 5.47488 -0.417314 -5.43779e-11 -6.2086e-10 -3.69996e-10 -2.90554 0.965183 -0.102902 -5.43845e-11 -6.20861e-10 -3.69997e-10 -10.2786 0.731801 -0.0259123 -5.43629e-11 -6.20854e-10 -3.69999e-10 -2.22167 -0.733487 0.20892 -2.03217e-16 0.0 -3.88251e-19 -6.70027 -1.21612 0.330147 0.00124974 -0.306649 0.0115925 -2.56408 -10.5622 -10.6719 2.03217e-16 0.0 3.88251e-19 6.16885 -12.9551 -7.71779 0.0573471 21.4049 -0.486748 4.40886 -17.2712 12.584
-3.42852 83.7486 28.1526 -1.1766 -1.4728 4.787 -1.22295 -5.78951 0.708322 1.99702 -1.40041 0.235889 -3.53716 5.0829 -2.46962 7.76277 -0.387331 -4.16489 -0.0 0.0 0.0 -0.0 0.0 0.0 -1.4366e-14 -1.64991e-13 3.11595e-14 89.6487 19.2484 -18.0012 -19.2565 -12.1045 36.9042 -0.44395 18.5987 2.71074 -2.00216e-12 -2.78184e-10 4.38595e-10 3.72841e-12 -4.88171e-10 7.60026e-10 -1.995e-12 -2.78179e-10 4.38579e-10 7.73091 5.47488 0.417314 -2.00449e-12 -2.78181e-10 4.38592e-10 2.90554 0.965183 0.102902 -1.99585e-12 -2.78181e-10 4.38593e-10 10.2786 0.731801 0.0259123 -2.00991e-12 -2.78178e-10 4.38598e-10 2.22167 -0.733487 -0.20892 -1.44587e-14 -1.64991e-13 3.07619e-14 -88.9387 20.0878 10.5479 16.6944 -9.34862 -31.1524 0.103027 9.11633 -1.29225 -1.25147e-10 -7.96309e-10 -3.65039e-10 -2.21114e-10 -1.38046e-09 -6.30194e-10 -1.25164e-10 -7.9631e-10 -3.65032e-10 -7.73091 5.47488 -0.417314 -1.25158e-10 -7.96317e-10 -3.65042e-10 -2.90554 0.965183 -0.102902 -1.25163e-10 -7.96318e-10 -3.65043e-10 -10.2786 0.731801 -0.0259123 -1.25138e-10 -7.96309e-10 -3.65045e-10 -2.22167 -0.733487 0.20892 -2.03217e-16 0.0 -3.88251e-19 -6.57494 -1.20968 0.357763 0.00107675 -0.346807 0.00964164 -2.45557 -10.2434 -10.4182 2.03217e-16 0.0 3.88251e-19 5.9963 -12.7603 -7.52513 0.0518736 21.038 -0.476411 4.2421 -16.8901 12.3008
